<svg fill="#000000" version="1.1" id="Capa_1" xmlns="http://www.w3.org/2000/svg" xmlns:xlink="http://www.w3.org/1999/xlink" viewBox="0 0 94.00 94.00" xml:space="preserve" stroke="#000000" stroke-width="0.0009400000000000001"><g id="SVGRepo_bgCarrier" stroke-width="0"></g><g id="SVGRepo_tracerCarrier" stroke-linecap="round" stroke-linejoin="round" stroke="#CCCCCC" stroke-width="3.3839999999999995"></g><g id="SVGRepo_iconCarrier"> <g> <g> <polygon points="32.697,36.083 31.345,36.091 26.966,49.274 37.054,49.274 "></polygon> <path d="M62.268,55.57c0,2.465,1.645,3.665,3.793,3.665c2.403,0,4.362-1.579,4.994-3.54c0.127-0.507,0.191-1.074,0.191-1.644 v-3.353C66.188,50.637,62.268,51.84,62.268,55.57z"></path> <path d="M0,12.887v68.227h94V12.887H0z M40.826,65.305l-1.929-7.346h-13.77l-1.984,7.346H12.956l12.347-38.002H38.45 l12.502,38.002H40.826z M72.383,65.305l-0.568-3.098h-0.189C69.602,64.674,66.441,66,62.773,66c-6.258,0-9.987-4.551-9.987-9.482 c0-8.029,7.206-11.887,18.144-11.822v-0.443c0-1.643-0.886-3.982-5.627-3.982c-3.16,0-6.512,1.076-8.535,2.34l-1.77-6.195 c2.148-1.201,6.385-2.719,12.012-2.719c10.305,0,13.592,6.068,13.592,13.34v10.747c0,2.971,0.125,5.815,0.442,7.522L72.383,65.305 L72.383,65.305z"></path> </g> </g> </g></svg>